<?xml version="1.0" encoding="UTF-8"?>
<svg width="96px" height="111px" viewBox="0 0 96 111" version="1.1" xmlns="http://www.w3.org/2000/svg" xmlns:xlink="http://www.w3.org/1999/xlink">
    <title>Plenum_Logo_Stack_RGB_ForGreen_Dark_White</title>
    <g id="Page-1" stroke="none" stroke-width="1" fill="none" fill-rule="evenodd">
        <g id="Plenum_Logo_Stack_RGB_ForGreen_Dark_White" transform="translate(-50, 0.014)" fill="#036439" fill-rule="nonzero">
            <g id="Group">
                <path d="M138.84,44.1 C139.93,43.39 141.59,43.19 142.54,43.89 C143.59,44.66 144.51,46.75 144.78,48.09 C145.43,51.33 144.82,53.89 141.33,55.69 C139.12,56.83 129.98,60.14 123.93,60.63 C123.38,60.67 122.85,60.7 122.32,60.7 C117,60.7 113.76,58.36 110.95,53.58 C109.5,51.12 108.69,46.02 108.25,43.76 C107.54,43.81 106.1,43.86 105.39,43.92 C103.5,44.07 101.72,44.2 100.14,44.22 C94.18,44.26 90.72,41 89.64,34.19 L89.64,34.19 C88.76,28.69 87.36,12.47 88.01,5.63 C88.21,3.57 89.49,1.89 90.88,1.23 C92.55,0.43 94.54,-0.14 96.01,0.01 C97.36,0.14 98.41,0.66 99.13,1.56 C100.09,2.75 100.4,4.47 100.1,6.97 C98.93,16.91 98,27.17 98.61,32.89 C98.77,34.36 99.19,34.97 101.4,34.89 C102.75,34.84 106.05,34.62 107.71,34.46 C107.64,28.73 109.93,25.12 112.53,22.96 C115.15,20.78 118.1,19.58 124.02,19.82 C129.93,20.06 133.91,22.48 134.28,28.54 C134.41,30.69 134.33,33.7 134.11,36.01 C133.79,39.46 130.26,41.36 127.96,41.8 C125.68,42.23 120.27,42.76 117.44,43.06 C118.07,46.11 119.13,50.19 120.59,51.25 C121.72,52.07 123.22,52.59 124.95,52.01 C130.11,50.27 137,45.27 138.83,44.08 L138.84,44.1 Z M123.45,27.62 C121.57,27.09 119.53,27.33 118.05,29 C117.06,30.12 116.83,31.86 116.83,34 C118.9,33.8 124.38,33.51 125.73,33.38 C125.75,33.31 125.77,33.2 125.78,33.06 C125.79,32.83 125.82,32.61 125.82,32.4 C125.82,30.12 125.15,28.09 123.45,27.61 L123.45,27.62 Z" id="Shape"></path>
                <path d="M56.58,24.9 C61.58,22.94 67.39,23.02 72.65,24.03 C77.74,25.02 83.01,29.2 84.88,37.19 C87.03,46.39 77.79,50.87 74.38,52.36 C72.8,53.05 70.24,53.73 68.39,52.26 C67.35,51.43 66.41,49.26 66.17,47.95 C65.86,46.2 66.23,43.84 69.81,42.51 C73.81,41.02 76.59,40.31 76.56,38.71 C76.54,37.42 74.1,34.08 69.81,33.28 C66.51,32.66 63.72,32.82 61.33,33.86 C59.16,34.8 58.58,37.63 60.02,41.92 C61.69,46.89 65.58,54.59 69.59,64.79 C70.43,66.92 70.55,68.74 69.84,70.14 C68.5,72.79 63.34,73.33 60.85,72.63 C58.86,72.07 57.26,69.76 56.39,67.21 C55.29,64.02 51.56,42.74 50.8,37.12 C49.95,30.87 51.58,26.86 56.57,24.9 L56.58,24.9 Z" id="Path"></path>
                <path d="M91.97,54.02 C90.95,51.16 92.91,49.05 94.63,48.45 C96.43,47.82 99.09,48.52 100.54,50.88 C102.47,54 110.11,64.63 111.33,67.97 C112.13,70.13 112.97,73.91 110.98,75.19 C109.02,76.45 105.69,76.03 103.74,75.64 C100.3,74.95 91.16,72.42 85.81,69.28 C86.66,74.33 87.81,81.44 88.15,84.56 C88.45,87.3 88.32,90.58 84.69,91.62 C84.32,91.73 82.13,91.93 81.74,91.93 C79.31,91.93 77.15,89.79 76.35,87.06 C75.63,84.59 74.83,69.86 74.91,64.74 C74.97,60.62 76.01,57.91 79.52,57.04 L79.52,57.04 C82.41,56.55 84.56,57.78 86.29,58.77 C88.31,59.92 95.85,63.31 98.59,64.8 C96.24,61.57 92.97,56.87 91.97,54.05 L91.97,54.02 Z" id="Path"></path>
                <path d="M81.11,110.95 C80.74,110.95 80.37,110.94 80,110.92 C68.97,110.25 58.9,101.74 54.28,86.97 C53.04,83.02 54.36,80.57 57.84,79.67 C60.39,79.01 62.86,78.85 64.81,79.93 C66.45,80.84 66.83,82.51 67.34,84.12 C71.47,97.06 73.69,101.68 80.71,102.22 C87.73,102.76 90.87,95.22 92.69,88.61 C93.45,85.85 94.69,83.78 97.67,83.78 C99.61,83.78 101.73,84.18 102.65,85.21 C103.51,86.17 103.86,87.49 103.69,89.14 C102.72,98.28 93.52,110.96 81.11,110.96 L81.11,110.95 Z" id="Path"></path>
                <path d="M125.31,77.21 C127.12,82.13 128.83,87.28 129.4,91.04 C129.91,94.38 129.88,96.74 128.27,97.38 C126.54,98.06 125.01,97.28 123.76,96.43 C122.47,95.56 117.36,92.89 116.25,91.77 C116.2,91.72 116.15,91.67 116.11,91.63 C116.27,92.67 116.55,94.24 116.84,95.91 C117.3,98.52 117.78,103.24 117.97,104.82 C118.54,109.38 117.5,110.16 115.03,110.63 C114.02,110.82 111.92,110.71 111.58,110.71 C109.64,110.71 108.46,109.67 107.77,107.82 C107.3,106.54 107.33,98.08 107.36,91.42 C107.38,86.91 107.7,84.45 109.18,82.92 C110.21,81.85 111.66,81.33 113.62,81.33 C115.58,81.33 117.21,81.94 118.88,83.03 C118.49,81.21 118.09,79.17 117.81,77.39 C117.09,72.85 116.78,69.47 119.37,67.3 C121,65.93 123.16,66.22 126.32,67.8 C127.83,68.55 141.92,74.77 143.85,76.71 C146.42,79.28 145.19,82.44 143.91,84.48 C143.4,85.41 141.74,87.16 140.73,87.45 C139.72,87.74 138.62,87.61 137.71,87.11 C137.08,86.76 133.85,84.07 129.84,80.84 C128.38,79.66 126,77.74 125.32,77.22 L125.31,77.21 Z" id="Path"></path>
            </g>
        </g>
    </g>
</svg>