<svg viewBox="0 0 284 32">
<path fill="#000" style="fill: var(--color1, #000)" d="M8.893 2.077c-1.72 0-3.343 0.714-3.992 1.817 0 0.195 0.097 4.219 0.162 5.128h4.057v1.688h-4.057v10.937l3.245 0.389 0.065 1.298h-8.373l0.065-1.298 2.694-0.389v-10.937h-2.564l0.065-1.168 2.499-0.454v-1.655c0-4.998 2.759-7.432 5.907-7.432 0.325 0 0.682 0 0.941 0.032l0.292 2.11c-0.325-0.065-0.682-0.065-1.006-0.065z"/> <path fill="#000" style="fill: var(--color1, #000)" d="M18.694 23.659c-3.895 0-7.27-2.824-7.27-7.14 0-4.738 3.408-7.854 7.789-7.854 4.057 0 7.367 2.824 7.367 7.205 0 4.998-3.765 7.789-7.886 7.789zM13.988 16.162c0 3.602 2.239 5.777 4.966 5.777 3.018 0 5.063-2.304 5.063-5.777 0-3.732-2.369-5.777-4.998-5.777-2.759 0-5.030 2.045-5.030 5.777z"/> <path fill="#000" style="fill: var(--color1, #000)" d="M39.302 11.424l-1.493-0.422c-1.233 0-2.824 1.071-3.732 2.759v7.886l3.343 0.389 0.065 1.298h-8.6l0.065-1.298 2.824-0.389v-9.931l-1.525-1.915v-0.487l3.732-0.487-0.13 3.44c1.428-2.726 2.953-3.602 4.576-3.602 0.422 0 0.811 0.032 1.201 0.162l-0.325 2.596z"/> <path fill="#000" style="fill: var(--color1, #000)" d="M41.671 23.335l0.065-1.298 2.824-0.389v-19.602l-2.856-0.195 0.065-1.331 5.29-0.325-0.195 2.045v19.408l2.791 0.389 0.065 1.298h-8.049z"/> <path fill="#000" style="fill: var(--color1, #000)" d="M65.298 23.237c-0.617 0.26-1.428 0.422-1.947 0.422-1.428 0-2.564-0.811-2.759-2.434-1.298 0.844-2.759 1.753-4.446 2.434-2.434 0-4.024-1.363-4.024-3.375 0-1.817 1.396-2.888 2.759-3.473l5.55-0.227c0.032-1.266 0.032-2.077 0.032-3.116 0-2.012-1.071-3.181-2.759-3.181-0.682 0-1.428 0.227-1.947 0.454l-0.779 3.375-1.266-0.26-0.195-3.31c1.72-1.233 3.44-1.882 5.095-1.882 2.304 0 4.122 1.168 4.122 4.544 0 0.487-0.097 6.069-0.097 6.458 0 1.72 0.584 2.467 2.077 2.467 0.195 0 0.454-0.065 0.649-0.097l-0.065 1.201zM54.945 18.337c-0.195 0.422-0.357 0.876-0.357 1.363 0 1.46 0.844 2.142 2.239 2.142 1.136-0.422 2.726-1.201 3.57-1.72l0.032-2.531-5.485 0.746z"/> <path fill="#000" style="fill: var(--color1, #000)" d="M73.931 32c-3.635 0-7.075-1.46-7.075-5.16 0-0.909 0.325-1.753 0.811-2.369 0.682-0.519 1.72-1.168 2.402-1.493-1.266-0.454-2.337-1.266-2.337-2.986 0-1.493 1.331-2.791 2.596-3.278-0.779-0.746-1.233-1.882-1.233-3.213 0-2.824 2.304-4.836 5.225-4.836 0.779 0 1.72 0.162 2.272 0.389h4.511v1.331l-2.726 0.097c0.714 0.649 1.201 1.85 1.201 2.986 0 2.953-2.11 4.868-5.258 4.868-1.103 0-2.142-0.26-2.953-0.779-0.844 0.26-1.688 1.039-1.688 1.947 0 1.363 1.201 1.72 2.564 1.98 2.304 0.422 5.258 0.746 7.822 1.233 0.746 1.039 1.168 2.304 1.168 3.44 0 3.343-3.018 5.842-7.302 5.842zM78.864 24.698c-2.012-0.389-5.777-0.844-7.594-1.136-1.266 0.454-2.207 1.363-2.207 2.986 0 1.98 1.753 3.765 5.225 3.765 2.986 0 4.966-1.72 4.966-3.927 0-0.552-0.097-1.071-0.389-1.688zM74.32 10.126c-1.85 0-3.051 1.266-3.051 3.375 0 2.045 1.266 3.343 3.051 3.343 1.817 0 3.051-1.266 3.051-3.343 0-2.11-1.266-3.375-3.051-3.375z"/> <path fill="#000" style="fill: var(--color1, #000)" d="M90.093 23.659c-3.44 0-7.043-2.369-7.043-7.335 0-5.193 3.7-7.659 6.783-7.659 3.602 0 5.42 2.337 5.42 5.193 0 0.389-0.032 0.811-0.097 1.201h-9.574c-0.065 0.357-0.097 0.682-0.097 1.039 0 3.051 1.85 5.68 5.063 5.68 1.655 0 3.181-0.682 4.122-1.623l0.779 1.071c-1.103 1.428-3.051 2.434-5.355 2.434zM92.917 13.209c0-1.59-1.103-3.083-3.181-3.083-1.947 0-3.635 1.59-3.992 3.7l7.172-0.325v-0.292z"/> <path fill="#000" style="fill: var(--color1, #000)" d="M104.438 23.659c-2.694 0-4.349-1.298-4.349-4.771v-8.178h-2.499v-0.941l2.531-1.363 1.623-2.402h0.617v3.018h4.738v1.688h-4.738v7.724c0 2.369 1.039 3.44 2.629 3.44 0.844 0 1.817-0.195 2.596-0.454l0.292 1.525c-0.909 0.519-2.499 0.714-3.44 0.714z"/> <path fill="#f15b40" style="fill: var(--color2, #f15b40)" d="M130.726 30.604c-8.568 0-15.838-6.75-15.838-15.318s7.27-15.189 15.838-15.189c8.568 0 15.805 6.491 15.805 15.059s-7.237 15.448-15.805 15.448zM130.726 2.045c-7.497 0-13.176 5.842-13.176 13.306 0 7.497 5.68 13.306 13.176 13.306s13.176-5.842 13.176-13.306c0-7.465-5.712-13.306-13.176-13.306zM136.828 12.722l-1.493 0.195-0.227-4.187c-0.844-0.325-2.499-0.617-3.57-0.617-3.895 0-6.88 2.402-6.88 7.335 0 4.316 3.051 6.621 6.88 6.621 1.233 0 3.018-0.389 3.667-0.714l0.617-4.576 1.46 0.292v5.68c-1.331 0.617-3.797 1.233-5.939 1.233-4.998 0-9.412-3.018-9.412-8.568 0-6.393 4.901-9.185 9.444-9.185 2.11 0 4.609 0.487 5.972 1.039l-0.519 5.452z"/> <path fill="#000" style="fill: var(--color1, #000)" d="M160.714 23.659c-3.83 0-7.010-2.694-7.010-7.432 0-5.193 3.83-7.562 7.107-7.562 1.623 0 3.473 0.422 4.609 1.103l-0.357 2.045c-1.46-0.844-3.408-1.363-5.225-1.363-0.454 0-0.909 0.032-1.331 0.097-1.006 0.844-2.272 2.921-2.272 5.712 0 3.213 2.142 5.485 4.933 5.485 1.915 0 3.343-0.617 4.414-1.688l0.779 1.103c-1.428 1.72-3.245 2.499-5.647 2.499z"/> <path fill="#000" style="fill: var(--color1, #000)" d="M175.481 23.659c-3.895 0-7.27-2.824-7.27-7.14 0-4.738 3.408-7.854 7.789-7.854 4.057 0 7.367 2.824 7.367 7.205 0 4.998-3.765 7.789-7.886 7.789zM170.775 16.162c0 3.602 2.239 5.777 4.966 5.777 3.018 0 5.063-2.304 5.063-5.777 0-3.732-2.369-5.777-4.998-5.777-2.759 0-5.030 2.045-5.030 5.777z"/> <path fill="#000" style="fill: var(--color1, #000)" d="M185.379 23.335l0.065-1.298 2.824-0.389v-19.602l-2.856-0.195 0.065-1.331 5.29-0.325-0.195 2.045v19.408l2.791 0.389 0.065 1.298h-8.049z"/> <path fill="#000" style="fill: var(--color1, #000)" d="M206.312 23.659l0.13-2.174c-1.623 1.623-3.213 2.174-4.868 2.174-2.791 0-4.641-1.493-4.641-5.322v-6.621l-1.525-1.915v-0.487l3.992-0.487-0.162 2.012v7.237c0 2.726 1.396 3.7 3.116 3.7 1.428 0 3.018-0.682 3.992-1.688v-9.412l-3.181-0.195 0.065-1.298 5.42-0.357v12.982l2.791 0.227 0.065 1.298-5.193 0.325z"/> <path fill="#000" style="fill: var(--color1, #000)" d="M231.464 23.335l0.065-1.298 2.045-0.389v-7.367c0-2.856-1.428-3.765-2.856-3.765-1.363 0-2.759 0.617-3.7 1.688v9.444l2.11 0.389 0.065 1.298h-6.621l0.065-1.298 2.11-0.389v-7.367c0-2.856-1.168-3.765-2.856-3.765-1.331 0-2.824 0.682-3.765 1.59v9.542l2.402 0.389 0.065 1.298h-7.627l0.065-1.298 2.824-0.389v-9.931l-1.525-1.915v-0.487l3.667-0.487-0.13 2.142c1.266-1.558 3.116-2.304 4.673-2.304 1.947 0 3.44 0.649 4.024 2.531 1.201-1.753 3.051-2.531 4.673-2.531 2.791 0 4.609 1.396 4.609 5.42v7.562l2.499 0.389 0.065 1.298h-6.945z"/> <path fill="#000" style="fill: var(--color1, #000)" d="M247.237 23.659c-1.72 0-4.057-0.422-5.452-1.493v-20.122l-2.759-0.195 0.065-1.331 5.16-0.325-0.195 2.045v8.016c1.233-1.071 2.759-1.59 4.381-1.59 4.219 0 6.556 3.083 6.556 7.107 0 4.446-3.278 7.886-7.757 7.886zM247.724 10.483c-1.331 0-2.564 0.519-3.667 1.233v9.347c0.876 0.519 2.174 0.811 3.181 0.811 3.343 0 5.225-2.791 5.225-5.907 0-2.888-1.59-5.485-4.738-5.485z"/> <path fill="#000" style="fill: var(--color1, #000)" d="M268.138 23.659l0.13-2.174c-1.623 1.623-3.213 2.174-4.868 2.174-2.791 0-4.641-1.493-4.641-5.322v-6.621l-1.525-1.915v-0.487l3.992-0.487-0.162 2.012v7.237c0 2.726 1.396 3.7 3.116 3.7 1.428 0 3.018-0.682 3.992-1.688v-9.412l-3.181-0.195 0.065-1.298 5.42-0.357v12.982l2.791 0.227 0.065 1.298-5.193 0.325z"/> <path fill="#000" style="fill: var(--color1, #000)" d="M279.108 23.659c-1.493 0-3.181-0.227-4.252-0.844l0.357-1.915c1.233 0.714 3.245 1.103 4.706 1.103 0.389 0 0.811-0.032 1.168-0.097 0.357-0.325 0.746-1.103 0.746-1.817 0-3.245-6.686-2.856-6.686-7.367 0-2.434 2.953-4.057 5.582-4.057 1.103 0 2.142 0.097 3.181 0.422l-0.292 1.947c-1.071-0.422-3.116-0.746-4.219-0.746-0.292 0-0.584 0-0.844 0.032-0.584 0.325-1.136 1.201-1.136 2.012 0 3.116 6.75 2.856 6.75 7.237 0 2.142-2.174 4.089-5.063 4.089z"/>
</svg>