<svg id="Layer_2" data-name="Layer 2" xmlns="http://www.w3.org/2000/svg" xmlns:xlink="http://www.w3.org/1999/xlink" viewBox="0 0 268.4 64.23"><defs><style>.cls-1{fill:url(#radial-gradient);}.cls-2{fill:#fff;}</style><radialGradient id="radial-gradient" cx="88.33" cy="27.13" r="10.16" gradientUnits="userSpaceOnUse"><stop offset="0.07" stop-color="#fff"/><stop offset="0.15" stop-color="#f4fbfe"/><stop offset="0.29" stop-color="#d7f1fa"/><stop offset="0.48" stop-color="#a7dff4"/><stop offset="0.7" stop-color="#64c8eb"/><stop offset="0.95" stop-color="#11aae0"/><stop offset="1" stop-color="#00a4de"/></radialGradient></defs><title>LOGOTY_SIDE_HVID_BLAA_3D</title><path class="cls-1" d="M115.2,31.82A21.76,21.76,0,1,1,93.45,10.07,21.75,21.75,0,0,1,115.2,31.82Z"/><path class="cls-2" d="M93.39.05A32.34,32.34,0,0,0,61.67,25.88h-.13v.06h-29V38.81H49.66a18.35,18.35,0,0,1-17,11.25,18.16,18.16,0,0,1-18.3-18,18.16,18.16,0,0,1,18.3-18,18.38,18.38,0,0,1,14.89,7.54L59.3,13.5A32.83,32.83,0,0,0,32.69,0C14.66,0,0,14.4,0,32.09S14.66,64.18,32.69,64.18a32.7,32.7,0,0,0,30.5-20.6,32.37,32.37,0,0,0,62.54-11.44A32.25,32.25,0,0,0,93.39.05Zm-5.16,15a16.16,16.16,0,0,0-4.35,6.31h-4.8A18,18,0,0,1,88.23,15.07ZM78.15,22.72h5.22a29.09,29.09,0,0,0-1.51,8.69H75.45A17.61,17.61,0,0,1,78.15,22.72Zm-2.71,10h6.42a29.28,29.28,0,0,0,1.35,8.37H77.88A17.56,17.56,0,0,1,75.44,32.75Zm3.31,9.71h4.93a16.78,16.78,0,0,0,4.49,6.73A18,18,0,0,1,78.75,42.46Zm14,7.46c-3.17-.36-6-3.22-7.69-7.46h7.69Zm0-8.8H84.6a28.31,28.31,0,0,1-1.39-8.37h9.58Zm0-9.71H83.21a27.78,27.78,0,0,1,1.55-8.69h8Zm0-10H85.3c1.75-4,4.44-6.66,7.49-7Zm18.54,10h-6.28a28.78,28.78,0,0,0-1.5-8.69h5.08A17.61,17.61,0,0,1,111.33,31.41Zm-3.63-10H103a16.39,16.39,0,0,0-4.27-6.25A18.05,18.05,0,0,1,107.7,21.38Zm-13.56-7c3,.35,5.74,3,7.48,7H94.14Zm0,8.34h8a27.78,27.78,0,0,1,1.55,8.69H94.14Zm0,10h9.57a27.67,27.67,0,0,1-1.39,8.37H94.14Zm0,17.17V42.46h7.68C100.08,46.69,97.31,49.56,94.14,49.92Zm4.69-.8a16.77,16.77,0,0,0,4.41-6.66H108A18,18,0,0,1,98.83,49.12Zm10.07-8h-5.19a29.28,29.28,0,0,0,1.35-8.37h6.28A17.56,17.56,0,0,1,108.9,41.12Z"/><path class="cls-2" d="M144.35,21.38v7.7h9.51v3.11h-9.51V45.62h-3.41V18.26h13.24v3.12Z"/><path class="cls-2" d="M184.91,31.94a14.33,14.33,0,0,1-28.66,0,14.33,14.33,0,0,1,28.66,0Zm-3.41,0a10.92,10.92,0,1,0-21.84,0,10.92,10.92,0,1,0,21.84,0Z"/><path class="cls-2" d="M205.23,45.62h-4.14L193,34h-1.42V45.62h-3.41V18.26h4.14c2.43,0,5,0,7.22,1.27a7.59,7.59,0,0,1,3.59,6.53,7.45,7.45,0,0,1-6.57,7.66Zm-13.61-14.4h1.09c3.48,0,7.26-.66,7.26-5s-4.07-4.9-7.44-4.9h-.91Z"/><path class="cls-2" d="M211.32,42.5h8.31v3.12H207.91V18.26h3.41Z"/><path class="cls-2" d="M224.76,38.76l-3.12,6.86H218L231,17.1,244.1,45.62h-3.67l-3.12-6.86ZM231,24.58l-4.87,11.06h9.73Z"/><path class="cls-2" d="M268.4,31.83v1.09c0,7.51-5.29,13.28-12.95,13.28S241.63,39.59,241.63,32A14.24,14.24,0,0,1,267,23l-2.39,2.29A10.78,10.78,0,0,0,245,31.9c0,5.74,4.72,11.18,10.63,11.18,4.24,0,8.82-3.66,9-8.13h-7.08V31.83Z"/></svg>