<?xml version="1.0" encoding="UTF-8"?>
<svg width="541px" height="53px" viewBox="0 0 541 53" version="1.1" xmlns="http://www.w3.org/2000/svg" xmlns:xlink="http://www.w3.org/1999/xlink">
    <title>Frame 2</title>
    <defs>
        <path d="M0,0 L541,0 L541,53 L0,53 L0,0 Z" id="path-1"></path>
        <radialGradient cx="38.2591691%" cy="39.1998%" fx="38.2591691%" fy="39.1998%" r="24.3602578%" gradientTransform="translate(0.3826, 0.392), scale(0.9583, 1), translate(-0.3826, -0.392)" id="radialGradient-2">
            <stop stop-color="#FFFFFF" offset="7%"></stop>
            <stop stop-color="#F4FBFE" offset="15%"></stop>
            <stop stop-color="#D7F1FA" offset="29%"></stop>
            <stop stop-color="#A7DFF4" offset="48%"></stop>
            <stop stop-color="#64C8EB" offset="70%"></stop>
            <stop stop-color="#11AAE0" offset="95%"></stop>
            <stop stop-color="#00A4DE" offset="100%"></stop>
        </radialGradient>
    </defs>
    <g id="Frame-2" stroke="none" fill="none" xlink:href="#path-1" stroke-width="1">
        <g id="Group" fill-rule="evenodd" transform="translate(12, 12)">
            <path d="M8.893,2.077 C7.173,2.077 5.55,2.791 4.901,3.894 C4.901,4.089 4.998,8.113 5.063,9.022 L9.12,9.022 L9.12,10.71 L5.063,10.71 L5.063,21.647 L8.308,22.036 L8.373,23.334 L0,23.334 L0.065,22.036 L2.759,21.647 L2.759,10.71 L0.195,10.71 L0.26,9.542 L2.759,9.088 L2.759,7.433 C2.759,2.435 5.518,0.001 8.666,0.001 C8.991,0.001 9.348,0.001 9.607,0.033 L9.899,2.143 C9.574,2.078 9.217,2.078 8.893,2.078 L8.893,2.077 Z" id="Path" fill="#FFFFFF" fill-rule="nonzero"></path>
            <path d="M18.694,23.659 C14.799,23.659 11.424,20.835 11.424,16.519 C11.424,11.781 14.832,8.665 19.213,8.665 C23.27,8.665 26.58,11.489 26.58,15.87 C26.58,20.868 22.815,23.659 18.694,23.659 L18.694,23.659 Z M13.988,16.162 C13.988,19.764 16.227,21.939 18.954,21.939 C21.972,21.939 24.017,19.635 24.017,16.162 C24.017,12.43 21.648,10.385 19.019,10.385 C16.26,10.385 13.989,12.43 13.989,16.162 L13.988,16.162 Z" id="Shape" fill="#FFFFFF" fill-rule="nonzero"></path>
            <path d="M39.302,11.424 L37.809,11.002 C36.576,11.002 34.985,12.073 34.077,13.761 L34.077,21.647 L37.42,22.036 L37.485,23.334 L28.885,23.334 L28.95,22.036 L31.774,21.647 L31.774,11.716 L30.249,9.801 L30.249,9.314 L33.981,8.827 L33.851,12.267 C35.279,9.541 36.804,8.665 38.427,8.665 C38.849,8.665 39.238,8.697 39.628,8.827 L39.303,11.423 L39.302,11.424 Z" id="Path" fill="#FFFFFF" fill-rule="nonzero"></path>
            <polygon id="Path" fill="#FFFFFF" fill-rule="nonzero" points="41.671 23.335 41.736 22.037 44.56 21.648 44.56 2.046 41.704 1.851 41.769 0.52 47.059 0.195 46.864 2.24 46.864 21.648 49.655 22.037 49.72 23.335 41.671 23.335"></polygon>
            <path d="M65.298,23.237 C64.681,23.497 63.87,23.659 63.351,23.659 C61.923,23.659 60.787,22.848 60.592,21.225 C59.294,22.069 57.833,22.978 56.146,23.659 C53.712,23.659 52.122,22.296 52.122,20.284 C52.122,18.467 53.518,17.396 54.881,16.811 L60.431,16.584 C60.463,15.318 60.463,14.507 60.463,13.468 C60.463,11.456 59.392,10.287 57.704,10.287 C57.022,10.287 56.276,10.514 55.757,10.741 L54.978,14.116 L53.712,13.856 L53.517,10.546 C55.237,9.313 56.957,8.664 58.612,8.664 C60.916,8.664 62.734,9.832 62.734,13.208 C62.734,13.695 62.637,19.277 62.637,19.666 C62.637,21.386 63.221,22.133 64.714,22.133 C64.909,22.133 65.168,22.068 65.363,22.036 L65.298,23.237 L65.298,23.237 Z M54.945,18.337 C54.75,18.759 54.588,19.213 54.588,19.7 C54.588,21.16 55.432,21.842 56.827,21.842 C57.963,21.42 59.553,20.641 60.397,20.122 L60.429,17.591 L54.944,18.337 L54.945,18.337 Z" id="Shape" fill="#FFFFFF" fill-rule="nonzero"></path>
            <path d="M73.931,32 C70.296,32 66.856,30.54 66.856,26.84 C66.856,25.931 67.181,25.087 67.667,24.471 C68.349,23.952 69.387,23.303 70.069,22.978 C68.803,22.524 67.732,21.712 67.732,19.992 C67.732,18.499 69.063,17.201 70.328,16.714 C69.549,15.968 69.095,14.832 69.095,13.501 C69.095,10.677 71.399,8.665 74.32,8.665 C75.099,8.665 76.04,8.827 76.592,9.054 L81.103,9.054 L81.103,10.385 L78.377,10.482 C79.091,11.131 79.578,12.332 79.578,13.468 C79.578,16.421 77.468,18.336 74.32,18.336 C73.217,18.336 72.178,18.076 71.367,17.557 C70.523,17.817 69.679,18.596 69.679,19.504 C69.679,20.867 70.88,21.224 72.243,21.484 C74.547,21.906 77.501,22.23 80.065,22.717 C80.811,23.756 81.233,25.021 81.233,26.157 C81.233,29.5 78.215,31.999 73.931,31.999 L73.931,32 Z M78.864,24.698 C76.852,24.309 73.087,23.854 71.27,23.562 C70.004,24.016 69.063,24.925 69.063,26.548 C69.063,28.528 70.816,30.313 74.288,30.313 C77.274,30.313 79.254,28.593 79.254,26.386 C79.254,25.834 79.157,25.315 78.865,24.698 L78.864,24.698 Z M74.32,10.126 C72.47,10.126 71.269,11.392 71.269,13.501 C71.269,15.546 72.535,16.844 74.32,16.844 C76.137,16.844 77.371,15.578 77.371,13.501 C77.371,11.391 76.105,10.126 74.32,10.126 L74.32,10.126 Z" id="Shape" fill="#FFFFFF" fill-rule="nonzero"></path>
            <path d="M90.093,23.659 C86.653,23.659 83.05,21.29 83.05,16.324 C83.05,11.131 86.75,8.665 89.833,8.665 C93.435,8.665 95.253,11.002 95.253,13.858 C95.253,14.247 95.221,14.669 95.156,15.059 L85.582,15.059 C85.517,15.416 85.485,15.741 85.485,16.098 C85.485,19.149 87.335,21.778 90.548,21.778 C92.203,21.778 93.729,21.096 94.67,20.155 L95.449,21.226 C94.346,22.654 92.398,23.66 90.094,23.66 L90.093,23.659 Z M92.917,13.209 C92.917,11.619 91.814,10.126 89.736,10.126 C87.789,10.126 86.101,11.716 85.744,13.826 L92.916,13.501 L92.916,13.209 L92.917,13.209 Z" id="Shape" fill="#FFFFFF" fill-rule="nonzero"></path>
            <path d="M130.726,30.604 C122.158,30.604 114.888,23.854 114.888,15.286 C114.888,6.718 122.158,0.097 130.726,0.097 C139.294,0.097 146.531,6.588 146.531,15.156 C146.531,23.724 139.294,30.604 130.726,30.604 Z M130.726,2.045 C123.229,2.045 117.55,7.887 117.55,15.351 C117.55,22.848 123.23,28.657 130.726,28.657 C138.222,28.657 143.902,22.815 143.902,15.351 C143.902,7.886 138.19,2.045 130.726,2.045 Z M136.828,12.722 L135.335,12.917 L135.108,8.73 C134.264,8.405 132.609,8.113 131.538,8.113 C127.643,8.113 124.658,10.515 124.658,15.448 C124.658,19.764 127.709,22.069 131.538,22.069 C132.771,22.069 134.556,21.68 135.205,21.355 L135.822,16.779 L137.282,17.071 L137.282,22.751 C135.951,23.368 133.485,23.984 131.343,23.984 C126.345,23.984 121.931,20.966 121.931,15.416 C121.931,9.023 126.832,6.231 131.375,6.231 C133.485,6.231 135.984,6.718 137.347,7.27 L136.828,12.722 L136.828,12.722 Z" id="Shape" fill="#F25B3F" fill-rule="nonzero"></path>
            <path d="M104.438,23.659 C101.744,23.659 100.089,22.361 100.089,18.888 L100.089,10.71 L97.59,10.71 L97.59,9.769 L100.121,8.406 L101.744,6.004 L102.361,6.004 L102.361,9.022 L107.099,9.022 L107.099,10.71 L102.361,10.71 L102.361,18.434 C102.361,20.803 103.4,21.874 104.99,21.874 C105.834,21.874 106.807,21.679 107.586,21.42 L107.878,22.945 C106.969,23.464 105.379,23.659 104.438,23.659 L104.438,23.659 Z" id="Path" fill="#FFFFFF" fill-rule="nonzero"></path>
            <path d="M160.714,23.659 C156.884,23.659 153.704,20.965 153.704,16.227 C153.704,11.034 157.534,8.665 160.811,8.665 C162.434,8.665 164.284,9.087 165.42,9.768 L165.063,11.813 C163.603,10.969 161.655,10.45 159.838,10.45 C159.384,10.45 158.929,10.482 158.507,10.547 C157.501,11.391 156.235,13.468 156.235,16.259 C156.235,19.472 158.377,21.744 161.168,21.744 C163.083,21.744 164.511,21.127 165.582,20.056 L166.361,21.159 C164.933,22.879 163.116,23.658 160.714,23.658 L160.714,23.659 Z" id="Path" fill="#FFFFFF" fill-rule="nonzero"></path>
            <path d="M175.481,23.659 C171.586,23.659 168.211,20.835 168.211,16.519 C168.211,11.781 171.619,8.665 176,8.665 C180.057,8.665 183.367,11.489 183.367,15.87 C183.367,20.868 179.602,23.659 175.481,23.659 L175.481,23.659 Z M170.775,16.162 C170.775,19.764 173.014,21.939 175.741,21.939 C178.759,21.939 180.804,19.635 180.804,16.162 C180.804,12.43 178.435,10.385 175.806,10.385 C173.047,10.385 170.776,12.43 170.776,16.162 L170.775,16.162 Z" id="Shape" fill="#FFFFFF" fill-rule="nonzero"></path>
            <polygon id="Path" fill="#FFFFFF" fill-rule="nonzero" points="185.379 23.335 185.444 22.037 188.268 21.648 188.268 2.046 185.412 1.851 185.477 0.52 190.767 0.195 190.572 2.24 190.572 21.648 193.363 22.037 193.428 23.335"></polygon>
            <path d="M206.312,23.659 L206.442,21.485 C204.819,23.108 203.229,23.659 201.574,23.659 C198.783,23.659 196.933,22.166 196.933,18.337 L196.933,11.716 L195.408,9.801 L195.408,9.314 L199.4,8.827 L199.238,10.839 L199.238,18.076 C199.238,20.802 200.634,21.776 202.354,21.776 C203.782,21.776 205.372,21.094 206.346,20.088 L206.346,10.676 L203.165,10.481 L203.23,9.183 L208.65,8.826 L208.65,21.808 L211.441,22.035 L211.506,23.333 L206.313,23.658 L206.312,23.659 Z" id="Path" fill="#FFFFFF" fill-rule="nonzero"></path>
            <path d="M231.464,23.335 L231.529,22.037 L233.574,21.648 L233.574,14.281 C233.574,11.425 232.146,10.516 230.718,10.516 C229.355,10.516 227.959,11.133 227.018,12.204 L227.018,21.648 L229.128,22.037 L229.193,23.335 L222.572,23.335 L222.637,22.037 L224.747,21.648 L224.747,14.281 C224.747,11.425 223.579,10.516 221.891,10.516 C220.56,10.516 219.067,11.198 218.126,12.106 L218.126,21.648 L220.528,22.037 L220.593,23.335 L212.966,23.335 L213.031,22.037 L215.855,21.648 L215.855,11.717 L214.33,9.802 L214.33,9.315 L217.997,8.828 L217.867,10.97 C219.133,9.412 220.983,8.666 222.54,8.666 C224.487,8.666 225.98,9.315 226.564,11.197 C227.765,9.444 229.615,8.666 231.237,8.666 C234.028,8.666 235.846,10.062 235.846,14.086 L235.846,21.648 L238.345,22.037 L238.41,23.335 L231.465,23.335 L231.464,23.335 Z" id="Path" fill="#FFFFFF" fill-rule="nonzero"></path>
            <path d="M247.237,23.659 C245.517,23.659 243.18,23.237 241.785,22.166 L241.785,2.044 L239.026,1.849 L239.091,0.518 L244.251,0.193 L244.056,2.238 L244.056,10.254 C245.289,9.183 246.815,8.664 248.437,8.664 C252.656,8.664 254.993,11.747 254.993,15.771 C254.993,20.217 251.715,23.657 247.236,23.657 L247.237,23.659 Z M247.724,10.483 C246.393,10.483 245.16,11.002 244.057,11.716 L244.057,21.063 C244.933,21.582 246.231,21.874 247.238,21.874 C250.581,21.874 252.463,19.083 252.463,15.967 C252.463,13.079 250.873,10.482 247.725,10.482 L247.724,10.483 Z" id="Shape" fill="#FFFFFF" fill-rule="nonzero"></path>
            <path d="M268.138,23.659 L268.268,21.485 C266.645,23.108 265.055,23.659 263.4,23.659 C260.609,23.659 258.759,22.166 258.759,18.337 L258.759,11.716 L257.234,9.801 L257.234,9.314 L261.226,8.827 L261.064,10.839 L261.064,18.076 C261.064,20.802 262.46,21.776 264.18,21.776 C265.608,21.776 267.198,21.094 268.172,20.088 L268.172,10.676 L264.991,10.481 L265.056,9.183 L270.476,8.826 L270.476,21.808 L273.267,22.035 L273.332,23.333 L268.139,23.658 L268.138,23.659 Z" id="Path" fill="#FFFFFF" fill-rule="nonzero"></path>
            <path d="M279.108,23.659 C277.615,23.659 275.927,23.432 274.856,22.815 L275.213,20.9 C276.446,21.614 278.458,22.003 279.919,22.003 C280.308,22.003 280.73,21.971 281.087,21.906 C281.444,21.581 281.833,20.803 281.833,20.089 C281.833,16.844 275.147,17.233 275.147,12.722 C275.147,10.288 278.1,8.665 280.729,8.665 C281.832,8.665 282.871,8.762 283.91,9.087 L283.618,11.034 C282.547,10.612 280.502,10.288 279.399,10.288 C279.107,10.288 278.815,10.288 278.555,10.32 C277.971,10.645 277.419,11.521 277.419,12.332 C277.419,15.448 284.169,15.188 284.169,19.569 C284.169,21.711 281.995,23.658 279.106,23.658 L279.108,23.659 Z" id="Path" fill="#FFFFFF" fill-rule="nonzero"></path>
        </g>
        <line x1="336.5" y1="20.5" x2="321.5" y2="35.5" id="Line" stroke="#FFFFFF" stroke-linecap="square"></line>
        <line x1="336" y1="21" x2="321" y2="36" id="Line" stroke="#FFFFFF" stroke-linecap="square" transform="translate(328.5, 28.5) scale(-1, 1) translate(-328.5, -28.5)"></line>
        <g id="goforlag-logo" fill-rule="evenodd" transform="translate(366, 10)">
            <path d="M64,17.4945483 C64.0022291,22.1467573 61.0793835,26.3419692 56.5948562,28.12328 C52.1103288,29.9045908 46.9476534,28.9210499 43.515018,25.6314411 C40.0823827,22.3418322 39.0560791,17.3942682 40.9148383,13.0965962 C42.7735974,8.79892415 47.1512098,5.99786375 52.0056887,6 C55.1867775,6 58.2375772,7.21103038 60.4869467,9.36667611 C62.7363161,11.5223218 64,14.4460049 64,17.4945483 L64,17.4945483 Z" id="Path" fill="url(#radialGradient-2)" fill-rule="nonzero"></path>
            <path d="M51.2519685,0.0273379124 C42.8184286,0.0164627909 35.5418449,5.90030805 33.8441899,14.1032669 L33.7728466,14.1032669 L33.7728466,14.1359636 L17.8577905,14.1359636 L17.8577905,21.1494056 L27.2531615,21.1494056 C25.6776136,24.8780261 21.9957206,27.2974795 17.9236459,27.2800367 C12.4236953,27.3223515 7.92899082,22.9323463 7.88069673,17.4710269 C7.92899082,12.0097076 12.4236953,7.61970233 17.9236459,7.66201718 C21.1528213,7.65384966 24.1907327,9.18139546 26.095204,11.7709024 L32.5435457,7.35684798 C29.1440366,2.72274824 23.7138336,-0.0128193456 17.9401098,4.51718691e-05 C8.04533524,4.51718691e-05 0,7.84729847 0,17.4873753 C0,27.1274521 8.04533524,34.9746599 17.9401098,34.9746599 C25.3119529,35.0017403 31.9505827,30.5494003 34.6783584,23.7487932 C37.7644709,31.6333691 46.052812,36.2325519 54.4326955,34.7104329 C62.812579,33.1883139 68.9245932,25.9734557 69,17.5146225 C68.9516176,7.82340916 61.0117321,4.51718691e-05 51.2519685,0.0273379124 L51.2519685,0.0273379124 Z M48.4201861,8.20151271 C47.3582645,9.14104523 46.5394864,10.3204118 46.0329277,11.6401156 L43.3987115,11.6401156 C44.6669571,10.0006521 46.4244243,8.80098908 48.4201861,8.21241161 L48.4201861,8.20151271 Z M42.8883321,12.3812408 L45.7530422,12.3812408 C45.2360218,13.9087646 44.9565836,15.5056398 44.9243617,17.1168127 L41.4065855,17.1168127 C41.4741534,15.436644 41.9851289,13.8035973 42.8883321,12.3812408 L42.8883321,12.3812408 Z M41.4010976,17.8306906 L44.9243617,17.8306906 C44.9471633,19.3787266 45.1967368,20.9152265 45.665235,22.3918802 L42.7401575,22.3918802 C41.9174061,21.0122538 41.4569551,19.4494583 41.4010976,17.847039 L41.4010976,17.8306906 Z M43.2176092,23.1221064 L45.9231687,23.1221064 C46.4310084,24.5258624 47.2769581,25.7849493 48.3872584,26.7895862 C46.3066492,26.1700344 44.489697,24.8867885 43.2176092,23.1384548 L43.2176092,23.1221064 Z M50.9007397,27.1873961 C49.1610594,26.9912159 47.6079695,25.4326732 46.6805058,23.1221064 L50.9007397,23.1221064 L50.9007397,27.1873961 Z M50.9007397,22.3918802 L46.4280601,22.3918802 C45.9444816,20.9181674 45.6873191,19.3805057 45.665235,17.8306906 L50.9226915,17.8306906 L50.9007397,22.3918802 Z M50.9007397,17.1004643 L45.665235,17.1004643 C45.6927913,15.487011 45.9799598,13.8883093 46.5158673,12.3648924 L50.9062276,12.3648924 L50.9007397,17.1004643 Z M50.9007397,11.6510145 L46.8122167,11.6510145 C47.772608,9.47123453 49.2488666,8.02168087 50.9226915,7.83639957 L50.9007397,11.6510145 Z M61.0753997,17.1004643 L57.6289668,17.1004643 C57.601192,15.4893213 57.3235358,13.8920512 56.8057743,12.3648924 L59.5936531,12.3648924 C60.5073446,13.7898377 61.0260503,15.4290283 61.0973515,17.1168127 L61.0753997,17.1004643 Z M59.0832737,11.6510145 L56.5258888,11.6510145 C56.0230965,10.3497044 55.2205786,9.18329949 54.182534,8.24510831 C56.1385507,8.84779784 57.858357,10.0376955 59.1052255,11.6510145 L59.0832737,11.6510145 Z M51.641613,7.83639957 C53.2879981,8.02713032 54.7916965,9.47123453 55.7465999,11.6510145 L51.6635648,11.6510145 L51.641613,7.83639957 Z M51.641613,12.3812408 L56.0319733,12.3812408 C56.5678808,13.9046577 56.8550493,15.5033593 56.8826056,17.1168127 L51.6635648,17.1168127 L51.641613,12.3812408 Z M51.641613,17.8306906 L56.8935815,17.8306906 C56.876966,19.3809875 56.6196668,20.9194668 56.1307564,22.3918802 L51.6635648,22.3918802 L51.641613,17.8306906 Z M51.641613,27.1873961 L51.641613,23.1384548 L55.8563589,23.1384548 C54.9234073,25.4435721 53.403245,27.0075642 51.6635648,27.2037444 L51.641613,27.1873961 Z M54.2154617,26.7514401 C55.3048005,25.752884 56.1350799,24.5077893 56.6356478,23.1221064 L59.269864,23.1221064 C58.0322582,24.8444832 56.2669672,26.1233213 54.2374135,26.7677884 L54.2154617,26.7514401 Z M59.7418277,22.3918802 L56.8935815,22.3918802 C57.3620798,20.9152265 57.6116532,19.3787266 57.6344548,17.8306906 L61.0808876,17.8306906 C61.0372022,19.4423491 60.5841458,21.016922 59.7637795,22.4082285 L59.7418277,22.3918802 Z" id="Shape" fill="#FFFFFF" fill-rule="nonzero"></path>
            <polygon id="Path" fill="#FFFFFF" fill-rule="nonzero" points="79.8028701 11.7105263 79.8028701 15.9320175 84.8308157 15.9320175 84.8308157 17.6370614 79.8028701 17.6370614 79.8028701 25 78 25 78 10 85 10 85 11.7105263"></polygon>
            <path d="M102,17.5 C102,21.6421356 98.418278,25 94,25 C89.581722,25 86,21.6421356 86,17.5 C86,13.3578644 89.581722,10 94,10 C98.418278,10 102,13.3578644 102,17.5 Z M100.096301,17.5 C100.096301,14.3435366 97.3668943,11.7847174 94,11.7847174 C90.6331057,11.7847174 87.9036985,14.3435366 87.9036985,17.5 C87.9036985,19.5418739 89.0656469,21.4286432 90.9518492,22.4495801 C92.8380515,23.4705171 95.1619485,23.4705171 97.0481508,22.4495801 C98.9343531,21.4286432 100.096301,19.5418739 100.096301,17.5 L100.096301,17.5 Z" id="Shape" fill="#FFFFFF" fill-rule="nonzero"></path>
            <path d="M113,25 L110.815944,25 L106.548066,18.629386 L105.798945,18.629386 L105.798945,25 L104,25 L104,10 L106.184056,10 C107.466002,10 108.821805,10 109.992966,10.6962719 C111.183309,11.4632667 111.901505,12.8208718 111.88687,14.2763158 C111.958675,16.400036 110.451515,18.2261774 108.420868,18.4758772 L113,25 Z M105.820047,17.1052632 L106.395076,17.1052632 C108.23095,17.1052632 110.225088,16.7434211 110.225088,14.3640351 C110.225088,11.9846491 108.07796,11.6776316 106.300117,11.6776316 L105.820047,11.6776316 L105.820047,17.1052632 Z" id="Shape" fill="#FFFFFF" fill-rule="nonzero"></path>
            <polygon id="Path" fill="#FFFFFF" fill-rule="nonzero" points="116.745734 23.2894737 121 23.2894737 121 25 115 25 115 10 116.745734 10"></polygon>
            <path d="M123.626054,21.3920056 L121.95249,25 L120,25 L126.97318,10 L134,25 L132.031418,25 L130.357854,21.3920056 L123.626054,21.3920056 Z M126.97318,13.9340813 L124.36092,19.7510519 L129.580077,19.7510519 L126.97318,13.9340813 Z" id="Shape" fill="#FFFFFF" fill-rule="nonzero"></path>
            <path d="M148,17.4524199 L148,18.0249225 C148,21.9694129 145.233521,25 141.227618,25 C137.221715,25 134.000258,21.5282182 134.000258,17.5417093 C133.973941,14.3523776 135.964287,11.4971742 138.95721,10.4308312 C141.950133,9.36448831 145.287073,10.3216433 147.267851,12.8146236 L146.017967,14.0174043 C144.584346,11.9550809 141.967965,11.089829 139.5948,11.8932275 C137.221636,12.6966259 135.660665,14.9760565 135.762646,17.4891861 C135.762646,20.5040163 138.231035,23.361277 141.321752,23.361277 C143.539118,23.361277 145.934293,21.4389288 146.028426,19.0911429 L142.325842,19.0911429 L142.325842,17.4524199 L148,17.4524199 Z" id="Path" fill="#FFFFFF" fill-rule="nonzero"></path>
        </g>
    </g>
</svg>