<?xml version="1.0" encoding="UTF-8"?>
<svg width="1200px" height="350px" viewBox="0 0 1200 350" version="1.1" xmlns="http://www.w3.org/2000/svg" xmlns:xlink="http://www.w3.org/1999/xlink">
    <title>morkt-simpelt-plenum-banner</title>
    <defs>
        <path d="M0,0 L1200,0 L1200,350 L0,350 L0,0 Z" id="path-1"></path>
        <path d="M0,0 L340,0 L340,398 L0,398 L0,0 Z" id="path-2"></path>
    </defs>
    <g id="morkt-simpelt-plenum-banner" stroke="none" fill="none" xlink:href="#path-1" fill-rule="evenodd">
        <use fill="#FFFFFF" xlink:href="#path-1"></use>
        <rect id="Rectangle" fill="#036439" x="0" y="0" width="1200" height="350"></rect>
        <g id="Plenum_Logo_Stack_RGB_ForGreen_Dark_White" stroke-width="1" transform="translate(722, -32)" fill="#00BD3A">
            <g id="logo" transform="translate(181, -0)" xlink:href="#path-2" fill-rule="nonzero">
                <path d="M316.624387,158.211631 C320.534913,155.665269 326.490393,154.947984 329.89865,157.458482 C333.66567,160.220029 336.966298,167.715657 337.93496,172.521466 C340.266925,184.141483 338.078466,193.322731 325.557607,199.778296 C317.628926,203.86682 284.837909,215.737886 263.132696,217.495235 C261.159495,217.638692 259.258046,217.746284 257.356598,217.746284 C238.27036,217.746284 226.646411,209.35405 216.565147,192.210939 C211.363071,183.388334 208.457084,165.097567 206.878523,156.992246 C204.331299,157.171568 199.1651,157.350889 196.617876,157.566074 C189.83724,158.104038 183.451243,158.570273 177.782774,158.642002 C156.400448,158.785459 143.987218,147.093714 140.112569,122.67016 L140.112569,122.67016 C136.955447,102.944823 131.932753,44.7730112 134.264718,20.2418649 C134.982246,12.8538296 139.574423,6.82863573 144.561241,4.46159529 C150.552597,1.59245537 157.691998,-0.451806829 162.965827,0.0861569071 C167.809139,0.552392145 171.576159,2.41733309 174.159259,5.64511551 C177.603392,9.91296114 178.71556,16.081612 177.639268,25.0476742 C173.441731,60.6967378 170.105227,97.4934573 172.293687,118.007808 C172.867709,123.279852 174.374517,125.467572 182.303198,125.180658 C187.146511,125.001336 198.985718,124.212323 204.941198,123.638495 C204.690063,103.08828 212.905756,90.1412862 222.233616,82.3946085 C231.633229,74.5762022 242.216763,70.2724923 263.455583,71.1332343 C284.658527,71.9939762 298.937329,80.6731245 300.264755,102.406859 C300.731148,110.117673 300.444137,120.912812 299.654857,129.197453 C298.506812,141.570619 285.842448,148.384827 277.590879,149.962854 C269.411063,151.505016 250.001939,153.405822 239.848921,154.481749 C242.109134,165.420345 245.912031,180.052959 251.149983,183.854569 C255.204015,186.795437 260.585472,188.660378 266.792087,186.580252 C285.304302,180.339873 310.023132,162.407748 316.588511,158.139902 L316.624387,158.211631 Z M261.410629,99.1073485 C254.665869,97.2065433 247.347086,98.0672853 242.037381,104.056615 C238.485619,108.073411 237.660462,114.31379 237.660462,121.988739 C245.086874,121.271454 264.747133,120.231391 269.590445,119.765156 C269.662198,119.514106 269.733951,119.119599 269.769827,118.6175 C269.805704,117.792622 269.913333,117.003609 269.913333,116.25046 C269.913333,108.073411 267.509615,100.792968 261.410629,99.0714843 L261.410629,99.1073485 Z" id="Shape"></path>
                <path d="M21.5052371,89.3522728 C39.44343,82.32288 60.2876102,82.6097939 79.1585891,86.2320831 C97.4196695,89.7826438 116.326525,104.7739 123.035409,133.429435 C130.748832,166.424544 97.5990515,182.491728 85.3652039,187.835501 C79.6967349,190.310134 70.5123802,192.748903 63.8752488,187.476858 C60.1441046,184.500125 56.7717244,176.717583 55.9106911,172.019367 C54.7985231,165.743123 56.1259494,157.27916 68.9696956,152.509215 C83.3202499,147.165442 93.2938852,144.619081 93.186256,138.880801 C93.1145032,134.254313 84.3606651,122.275653 68.9696956,119.406513 C57.1304882,117.18293 47.1209766,117.756758 38.5465204,121.48664 C30.7613446,124.857879 28.6805142,135.007462 33.8467138,150.393225 C39.8380702,168.217756 53.7939843,195.833228 68.1804151,232.414762 C71.1940315,240.053847 71.6245481,246.581141 69.0773247,251.602135 C64.269889,261.106161 45.7576739,263.042831 36.8244538,260.532333 C29.6850531,258.523935 23.9448313,250.239294 20.8235857,241.09391 C16.8771833,229.653215 3.49529138,153.334093 0.768686051,133.178385 C-2.28080675,110.763229 3.56704415,96.3816656 21.4693607,89.3522728 L21.5052371,89.3522728 Z" id="Path"></path>
                <path d="M148.471767,193.788966 C144.812375,183.531791 151.844147,175.964434 158.014885,173.812579 C164.472635,171.553132 174.015753,174.063629 179.217829,182.527592 C186.141972,193.717237 213.551531,231.840934 217.92845,243.819593 C220.798561,251.566271 223.812177,265.122957 216.672776,269.713581 C209.641005,274.232477 197.694168,272.726178 190.698273,271.327472 C178.356796,268.852839 145.565779,259.779184 126.371913,248.51781 C129.421406,266.629256 133.54719,292.128737 134.766987,303.318383 C135.843279,313.145187 135.376886,324.90866 122.353758,328.638542 C121.026331,329.033049 113.169403,329.750334 111.770224,329.750334 C103.052262,329.750334 95.3029628,322.075385 92.4328519,312.284445 C89.8497521,303.425975 86.9796413,250.597936 87.2666523,232.235441 C87.4819107,217.45937 91.2130548,207.740159 103.805666,204.619969 L103.805666,204.619969 C114.173942,202.862621 121.887365,207.273924 128.093979,210.824484 C135.341009,214.948873 162.391804,227.106853 172.221934,232.450626 C163.790983,220.866474 152.059405,204.010277 148.471767,193.896559 L148.471767,193.788966 Z" id="Path"></path>
                <path d="M109.510012,397.964136 C108.182585,397.964136 106.855159,397.928272 105.527733,397.856543 C65.9560792,395.453638 29.8285586,364.933162 13.2536683,311.961667 C8.80499648,297.795288 13.5406794,289.008547 26.0256617,285.780765 C35.1741401,283.413724 44.0356074,282.839896 51.0315026,286.713235 C56.9152299,289.976882 58.2785326,295.966211 60.1082283,301.740356 C74.9251756,348.148694 82.8897333,364.717977 108.074956,366.654646 C133.260179,368.591316 144.525364,341.549672 151.054866,317.843403 C153.781472,307.944871 158.230144,300.520971 168.921307,300.520971 C175.881325,300.520971 183.487119,301.955541 186.787747,305.649559 C189.873116,309.092527 191.128789,313.826608 190.518891,319.744209 C187.038881,352.524132 154.032606,398 109.510012,398 L109.510012,397.964136 Z" id="Path"></path>
                <path d="M268.083637,276.958159 C274.577263,294.60337 280.712125,313.073458 282.757079,326.558416 C284.586775,338.537075 284.479145,347.001038 278.703047,349.29635 C272.496433,351.735119 267.007345,348.937707 262.522797,345.889246 C257.894743,342.769056 239.56191,333.193302 235.579631,329.176506 C235.40025,328.997185 235.220868,328.817864 235.077362,328.674407 C235.651384,332.404289 236.655923,338.034976 237.696338,344.024305 C239.346652,353.384874 241.068719,370.3128 241.75037,375.979351 C243.795324,392.333449 240.06418,395.13086 231.202712,396.81648 C227.579197,397.497901 220.045156,397.103394 218.825359,397.103394 C211.86534,397.103394 207.631927,393.373512 205.156456,386.738626 C203.470266,382.148002 203.577895,351.806847 203.685524,327.921257 C203.757277,311.746481 204.905322,302.923876 210.215027,297.436646 C213.910294,293.599171 219.11237,291.73423 226.144142,291.73423 C233.175914,291.73423 239.023765,293.921949 245.015121,297.831152 C243.615942,291.303859 242.180886,283.987552 241.176348,277.603716 C238.593248,261.321347 237.48108,249.199231 246.773064,241.416689 C252.620915,236.503287 260.370214,237.54335 271.707152,243.209901 C277.124486,245.89972 327.674314,268.207283 334.598456,275.164947 C343.818688,284.382059 339.405892,295.715162 334.813715,303.031469 C332.984019,306.366844 327.028539,312.643087 323.405024,313.683151 C319.781509,314.723214 315.835107,314.256978 312.570356,312.463766 C310.310143,311.208517 298.722071,301.561034 284.33564,289.976882 C279.097688,285.744901 270.559108,278.858965 268.119513,276.994024 L268.083637,276.958159 Z" id="Path"></path>
            </g>
        </g>
    </g>
</svg>